HIERARCHY
ROOT RootJoint
{
    OFFSET   0.000000   0.000000   0.000000
    CHANNELS 6 Xposition Yposition Zposition Xrotation Yrotation Zrotation
    JOINT pelvis_lowerback
    {
        OFFSET   0.000000   0.093605   0.000000
        CHANNELS 3 Xrotation Yrotation Zrotation
        JOINT lowerback_torso
        {
            OFFSET   0.000000   0.100000   0.000000
            CHANNELS 3 Xrotation Yrotation Zrotation
            JOINT torso_head
            {
                OFFSET   0.000000   0.282350   0.000000
                CHANNELS 3 Xrotation Yrotation Zrotation
                End Site
                {
                    OFFSET   0.000000   0.192650   0.000000
                }
            }
            JOINT rTorso_Clavicle
            {
                OFFSET  -0.001000   0.157500   0.000000
                CHANNELS 3 Xrotation Yrotation Zrotation
                JOINT rShoulder
                {
                    OFFSET  -0.117647   0.000000   0.000000
                    CHANNELS 3 Xrotation Yrotation Zrotation
                    JOINT rElbow
                    {
                        OFFSET  -0.245000   0.000000   0.000000
                        CHANNELS 3 Xrotation Yrotation Zrotation
                        JOINT rWrist
                        {
                            OFFSET  -0.240000   0.000000   0.000000
                            CHANNELS 3 Xrotation Yrotation Zrotation
                            End Site
                            {
                                OFFSET  -0.116353  -0.002500   0.000000
                            }
                        }
                    }
                }
            }
            JOINT lTorso_Clavicle
            {
                OFFSET   0.001000   0.157500   0.000000
                CHANNELS 3 Xrotation Yrotation Zrotation
                JOINT lShoulder
                {
                    OFFSET   0.117647   0.000000   0.000000
                    CHANNELS 3 Xrotation Yrotation Zrotation
                    JOINT lElbow
                    {
                        OFFSET   0.245000   0.000000   0.000000
                        CHANNELS 3 Xrotation Yrotation Zrotation
                        JOINT lWrist
                        {
                            OFFSET   0.240000   0.000000   0.000000
                            CHANNELS 3 Xrotation Yrotation Zrotation
                            End Site
                            {
                                OFFSET   0.116353  -0.002500   0.000000
                            }
                        }
                    }
                }
            }
        }
    }
    JOINT rHip
    {
        OFFSET  -0.100000  -0.051395   0.000000
        CHANNELS 3 Xrotation Yrotation Zrotation
        JOINT rKnee
        {
            OFFSET   0.000000  -0.410000   0.000000
            CHANNELS 3 Xrotation Yrotation Zrotation
            JOINT rAnkle
            {
                OFFSET   0.000000  -0.390000   0.000000
                CHANNELS 3 Xrotation Yrotation Zrotation
                JOINT rToeJoint
                {
                    OFFSET   0.000000  -0.050000   0.130000
                    CHANNELS 3 Xrotation Yrotation Zrotation
                    End Site
                    {
                        OFFSET  -0.010000   0.002000   0.060000
                    }
                }
            }
        }
    }
    JOINT lHip
    {
        OFFSET   0.100000  -0.051395   0.000000
        CHANNELS 3 Xrotation Yrotation Zrotation
        JOINT lKnee
        {
            OFFSET   0.000000  -0.410000   0.000000
            CHANNELS 3 Xrotation Yrotation Zrotation
            JOINT lAnkle
            {
                OFFSET   0.000000  -0.390000   0.000000
                CHANNELS 3 Xrotation Yrotation Zrotation
                JOINT lToeJoint
                {
                    OFFSET   0.000000  -0.050000   0.130000
                    CHANNELS 3 Xrotation Yrotation Zrotation
                    End Site
                    {
                        OFFSET   0.010000   0.002000   0.060000
                    }
                }
            }
        }
    }
}
MOTION
Frames: 11
Frame Time:   0.008333
 -2.483924   0.865551   4.493788  -4.452915  -8.957155  -0.785654  13.973657  -0.605389  -1.404857  -5.879652  -1.102457   0.821340  -3.152244   0.900617   0.540432  -6.161979  -5.944976   8.883089 -32.808118  -7.471974  23.090459   0.011584  76.691061  -0.008912   1.674412   5.442683 -27.721412  -6.315722   2.345466  -6.760313 -38.105881   7.668689 -25.666190   0.131705 -77.259133   0.111150  -2.905493  -6.583194  29.792612  -8.382722  -2.381063  -3.862917  44.900339  -0.003722  -0.004009 -24.042248  -5.605142   2.299331 -11.964365   0.000345  -0.000620 -16.541802   0.229837   2.059145  44.092553  -0.002931  -0.006189 -23.248100   7.179462   6.124865  -0.005412   0.000527   0.000014
 -2.483708   0.862186   4.493217  -4.619432  -9.143337  -0.808352  14.142776  -0.577672  -1.467167  -5.800812  -1.072921   0.805374  -3.280668   0.936379   0.531911  -5.918878  -5.324663   8.935256 -31.133851  -6.935200  24.103701  -0.093789  75.487299   0.088664   2.083813   5.815608 -27.759184  -6.209712   1.922097  -6.796667 -36.991251   7.505747 -26.322171   0.089650 -77.037863   0.074576  -2.739655  -6.808282  29.651396  -8.774980  -2.214977  -3.903478  46.034356  -0.003165  -0.003845 -24.805093  -5.569433   2.333065 -11.674805   0.000206  -0.000580 -17.186764   0.296847   2.064946  45.664457  -0.002852  -0.006179 -23.597607   7.327353   6.182483  -0.633312   0.000943  -0.000015
 -2.483444   0.858978   4.492821  -4.788753  -9.371693  -0.840296  14.294003  -0.525188  -1.522778  -5.715980  -1.013627   0.791555  -3.421531   0.967995   0.513702  -5.636530  -4.712371   9.038835 -29.514317  -6.432888  25.078338  -0.163647  74.276716   0.152430   2.285007   5.789252 -27.435283  -6.069318   1.534112  -6.861707 -35.909411   7.371198 -26.947419   0.055059 -76.782577   0.044470  -2.696609  -6.806413  29.340295  -9.112585  -2.057758  -3.942215  47.068609  -0.002905  -0.004065 -25.532681  -5.531418   2.370380 -11.367211   0.000103  -0.000676 -17.796126   0.391233   2.081851  47.187701  -0.002800  -0.006345 -23.848134   7.496963   6.241238  -1.394587   0.001440  -0.000011
 -2.483121   0.855888   4.492565  -4.951497  -9.617600  -0.880160  14.434860  -0.457873  -1.569250  -5.629405  -0.938745   0.787464  -3.559158   0.997445   0.494469  -5.353479  -4.134757   9.180566 -27.987131  -5.955901  26.001783  -0.202413  73.128759   0.186914   2.403686   5.625591 -26.994456  -5.921763   1.184270  -6.950235 -34.884720   7.254471 -27.538646   0.029275 -76.532016   0.022136  -2.706031  -6.715444  28.996711  -9.422969  -1.913646  -3.978972  48.039276  -0.002788  -0.004412 -26.221195  -5.496171   2.407540 -11.074250   0.000045  -0.000824 -18.356008   0.482115   2.102273  48.640336  -0.002841  -0.006684 -24.060742   7.661407   6.299129  -2.196025   0.001879   0.000225
 -2.482735   0.852902   4.492417  -5.103394  -9.863005  -0.925283  14.569784  -0.384746  -1.605604  -5.542029  -0.858102   0.793792  -3.689967   1.024992   0.476353  -5.078784  -3.595759   9.341907 -26.556504  -5.499725  26.868169  -0.220085  72.050495   0.201884   2.492656   5.420714 -26.527378  -5.775203   0.867742  -7.049485 -33.921184   7.148227 -28.093535   0.010641 -76.292783   0.006083  -2.735200  -6.591811  28.661674  -9.715282  -1.780914  -4.014549  48.957344  -0.002695  -0.004714 -26.872607  -5.463757   2.444181 -10.801740   0.000020  -0.000951 -18.872379   0.564196   2.122429  50.009411  -0.002880  -0.006987 -24.255844   7.816923   6.354641  -2.982502   0.002174   0.000551
 -2.482284   0.850019   4.492357  -5.243915 -10.097129  -0.974048  14.701903  -0.311190  -1.631688  -5.453302  -0.777477   0.809611  -3.812827   1.050753   0.459853  -4.815734  -3.095074   9.510532 -25.220319  -5.062368  27.675916  -0.224021  71.040742   0.204391   2.569407   5.205468 -26.062916  -5.633458   0.579535  -7.150752 -33.018604   7.047917 -28.611723  -0.002480 -76.066816  -0.005151  -2.771467  -6.456914  28.343691  -9.991751  -1.657705  -4.049303  49.827070  -0.002568  -0.004896 -27.488388  -5.433951   2.480008 -10.551031   0.000017  -0.001028 -19.353294   0.638250   2.141121  51.291114  -0.002850  -0.007130 -24.439917   7.963820   6.407348  -3.725820   0.002307   0.000835
 -2.481767   0.847242   4.492373  -5.373233 -10.316187  -1.025228  14.832150  -0.239466  -1.648216  -5.363062  -0.699502   0.833471  -3.927346   1.074868   0.445020  -4.565590  -2.631010   9.679043 -23.974311  -4.642995  28.426091  -0.219220  70.096422   0.199126   2.640356   4.991026 -25.610946  -5.498305   0.316042  -7.249078 -32.175001   6.951281 -29.094015  -0.011427 -75.854587  -0.012753  -2.809349  -6.320150  28.043574 -10.253318  -1.542283  -4.083836  50.650655  -0.002394  -0.004955 -28.069263  -5.406560   2.514647 -10.322508   0.000029  -0.001054 -19.802619   0.705577   2.157123  52.491343  -0.002738  -0.007113 -24.614572   8.101423   6.456902  -4.426055   0.002314   0.001050
 -2.481317   0.846503   4.493087  -5.474906 -10.448558  -1.083162  14.687487  -0.165720  -1.676620  -5.147959  -0.673095   0.891182  -4.041015   1.118851   0.430782  -4.325413  -2.193639   9.798863 -22.280734  -4.168693  29.380749  -0.284982  67.742342   0.256118   3.068453   5.544800 -25.389013  -5.288742   0.096807  -7.279042 -30.868369   6.862534 -29.722218  -0.076680 -74.521524  -0.073136  -2.496339  -6.838693  27.755543 -10.204044  -1.401960  -4.105732  50.831938  -0.001832  -0.004047 -28.101383  -5.376160   2.927434 -10.440727   0.000354  -0.000788 -20.153775   0.742174   2.176439  53.357060  -0.002332  -0.006338 -23.989265   8.307355   6.267950  -6.022190   0.000832   0.000734
 -2.480807   0.846792   4.494131  -5.507347 -10.580484  -1.137484  14.452274  -0.070590  -1.697522  -4.953202  -0.633354   0.957089  -4.177030   1.160495   0.414085  -4.017970  -1.820413   9.986690 -20.625436  -3.783297  30.301287  -0.318898  65.423070   0.283626   3.204771   5.496736 -24.895931  -5.015371  -0.058397  -7.356663 -29.574951   6.845891 -30.326755  -0.116200 -73.173554  -0.109457  -2.445208  -6.849668  27.284953 -10.094630  -1.266386  -4.116896  50.740038  -0.001513  -0.003198 -27.883847  -5.318803   3.280708 -10.726859   0.000917  -0.000592 -20.430339   0.811266   2.193560  54.012046  -0.001792  -0.005496 -23.090434   8.512595   6.097988  -7.940880  -0.000009   0.000394
 -2.480185   0.847624   4.495321  -5.490899 -10.719570  -1.179837  14.191495   0.037050  -1.716740  -4.780763  -0.580802   1.025785  -4.314971   1.199897   0.397840  -3.696572  -1.503909  10.195293 -19.056020  -3.437338  31.168068  -0.327947  63.232265   0.289471   3.229257   5.231159 -24.329813  -4.732213  -0.159071  -7.444008 -28.345456   6.857134 -30.889502  -0.134970 -71.891280  -0.126794  -2.499810  -6.662961  26.804611  -9.973883  -1.136747  -4.135800  50.509759  -0.001331  -0.002437 -27.539658  -5.257239   3.586026 -11.090216   0.001359  -0.000417 -20.682786   0.875186   2.196719  54.513166  -0.001391  -0.004812 -22.124866   8.699768   5.941965  -9.631486  -0.000460   0.000620
 -2.479430   0.848765   4.496580  -5.446818 -10.864312  -1.207500  13.934490   0.151202  -1.737105  -4.621103  -0.519234   1.094005  -4.446461   1.236998   0.382480  -3.381794  -1.227344  10.400414 -17.584432  -3.110450  31.974086  -0.321421  61.179841   0.282443   3.220955   4.905070 -23.765375  -4.457464  -0.223551  -7.522465 -27.192094   6.876180 -31.406239  -0.140609 -70.686323  -0.132329  -2.587470  -6.413066  26.363069  -9.848837  -1.011217  -4.171703  50.201231  -0.001228  -0.001755 -27.129498  -5.196643   3.853822 -11.485536   0.001608  -0.000245 -20.931838   0.937025   2.180585  54.936695  -0.001082  -0.004265 -21.186582   8.867834   5.792160 -10.799897  -0.000776   0.000939
